<?xml version="1.0" encoding="utf-8"?>
<!-- Generator: Adobe Illustrator 25.3.1, SVG Export Plug-In . SVG Version: 6.00 Build 0)  -->
<svg version="1.1" id="Layer_1" xmlns="http://www.w3.org/2000/svg" xmlns:xlink="http://www.w3.org/1999/xlink" x="0px" y="0px"
	 viewBox="0 0 441.1 76.96" style="enable-background:new 0 0 441.1 76.96;" xml:space="preserve">
<style type="text/css">
	.st0{fill:#282828;}
	.st1{fill:#F8991D;}
</style>
<g>
	<g id="Path_2344_3_">
		<path class="st0" d="M26.63,0.17h17.07l-0.56,39.5c0,19.89-7.27,30.77-22.88,34.15c-5.51,1.3-11.19,2.23-16.85,2.8l-3.26,0.34
			L0,58.51l2.92-0.12c5.74-0.22,11.47-1.22,16.96-2.96c3.04-1.18,6.71-4.07,6.34-15.63v-0.07l0.41-24.82V0.17z"/>
		<path class="st0" d="M231.45,3.2c1.67,2.11,2.48,4.66,2.37,7.27v61.87h-16.56V33.68l-22.18,34.18c-0.96,1.52-2.33,2.89-3.92,3.82
			c-1.55,0.93-3.19,1.4-5.1,1.37c-3.7,0-7.18-2.04-9.04-5.34l-22.47-34.43v39.06h-16.59V9.75c-0.15-2.37,0.66-4.82,2.3-6.78
			c1.77-1.86,4.14-2.82,6.52-2.74c3.19-0.15,6.44,1.52,8.36,4.41l31.04,45.65l30.4-45.55c1.74-2.89,5-4.7,8.45-4.51
			C227.27,0.14,229.77,1.2,231.45,3.2z"/>
		<path class="st0" d="M329.29,6.08c-2.33-4.92-8.3-7.05-13.26-4.78c-2.08,1.03-3.78,2.7-4.78,4.78l-39.59,66.35h19.99l10.22-18.25
			l36.51-0.15l10.44,18.3h19.23L329.29,6.08z M328.24,37.09h-16.69l8.26-13.82L328.24,37.09z"/>
		<path class="st0" d="M127.06,50.34c0.47,6.22-2.23,12.4-7.18,16.32l-0.34,0.22c-5.81,3.38-12.27,5.15-18.89,5.15
			c-0.93,0-15.88-0.1-15.88-0.1c-1.93,0-3.92-0.07-5.9-0.15c-2.11-0.07-4.29-0.34-6.4-0.81c-2.11-0.44-4.16-1.12-6.15-2.03
			c-2.04-0.96-3.85-2.26-5.37-3.92l-0.03-0.03c-1.62-1.77-2.89-3.82-3.73-6.08c-1.03-2.8-1.49-5.69-1.4-8.63V0.24h16.34v49.44
			c0,1.33,0,5.37,11.25,5.37h16.32c11,0,11-4.04,11-5.37V0.24h16.37L127.06,50.34L127.06,50.34z"/>
		<rect x="245.3" y="0.91" class="st0" width="17.15" height="71.72"/>
	</g>
	<g>
		<g>
			<path class="st1" d="M436.01,17.15c-0.61-1-1.28-1.94-2.01-2.84c-0.98-1.4-2.1-2.69-3.35-3.84l-1.18-1.18l-2.67-2.26l-2.69-1.86
				l-1.49-0.83c-5.17-2.87-10.98-4.36-16.9-4.34c-5.91-0.07-11.74,1.44-16.9,4.34l-1.49,0.83l-2.84,1.86l-2.69,2.26l-1.18,1.18
				c-1.25,1.17-2.37,2.45-3.35,3.84c-3.13,4.14-5.25,8.96-6.23,14.06c-0.54,2.37-0.81,4.76-0.83,7.18
				c0.05,3.58,0.61,7.13,1.67,10.54c0.51,1.66,1.13,3.26,1.86,4.83l1.67,3.02l1,1.33c0.57,1.01,1.25,1.98,2.01,2.84
				c1.45,1.77,3.08,3.38,4.83,4.83l2.69,2.01c0.88,0.66,1.84,1.22,2.84,1.67c5.15,2.89,10.97,4.39,16.88,4.36
				c5.9,0.02,11.69-1.42,16.9-4.17l1.52-1.01c1.45-0.84,2.86-1.81,4.17-2.84c0.83-0.83,1.82-1.49,2.5-2.26l2.26-2.5l2.01-2.69
				l1.01-1.49c3.29-5.59,5.04-11.98,5.04-18.48c0.08-6.47-1.66-12.86-5.02-18.38h-0.07V17.15z M431.9,26.83l-13.06,12.72l3.02,18.08
				l-16.24-8.52l-16.03,8.52l3.01-18.08l-13.03-12.72l18.08-2.67l8.19-16.41l8.03,16.41L431.9,26.83z"/>
		</g>
	</g>
</g>
</svg>
